<svg xmlns="http://www.w3.org/2000/svg" viewBox="0 0 384.48 490.78"><path style="fill-rule:evenodd;stroke:#000063;stroke-width:12.431;fill:#ce0000" d="m6.2155 484.57 363.1-.01-237.66-241.01 246.61.29L6.2355 6.22l-.0233 478.35z"/><path style="fill-rule:evenodd;stroke-width:1pt;fill:#fff" transform="matrix(1.2301 0 0 1.1997 -192.12 -271.36)" d="m296.98 523.24-21.03 7.14 16.45 15.87-22.16-1.46 9.13 20.96-19.91-9.82.41 22.85-14.64-16.7-8.37 21.28-7.13-21.03-15.87 16.45 1.45-22.16-20.95 9.13 9.82-19.91-22.86.41 16.7-14.64-21.27-8.37 21.03-7.13-16.46-15.87 22.16 1.45-9.12-20.95 19.91 9.82-.41-22.86 14.64 16.7 8.36-21.27 7.14 21.03 15.87-16.46-1.46 22.16 20.96-9.12-9.82 19.91 22.85-.41-16.7 14.64z"/><path style="fill-rule:evenodd;stroke-width:1pt;fill:#fff" d="m142.12 179.34-10.86 8.04 5.35 4.42c13-10.05 22.25-19.23 29.48-34.47 1.69 20.34-16.95 66-65.88 66.51-52.375-.05-70.547-48.5-68.526-67.37 9.621 17.45 15.492 25.97 30.594 35.05l4.62-4.24-10.229-8.52 13.168-3.42-7.085-11.93 13.796 1.01-1.733-13.89 12.093 7.08 3.784-12.93 8.69 10.41 8.138-9.87 4.43 13.41 11.31-7.86-1.45 13.64 13.54-1.59-6.35 12.61 13.12 3.91z"/></svg>